<?xml version="1.0" encoding="UTF-8"?>
    <svg width="800" height="700" version="1.1" xmlns="http://www.w3.org/2000/svg">
    <defs>
        <linearGradient id="grad-green" x1="0%" y1="0%" x2="100%" y2="0%">
            <stop offset="0%" stop-color="#16a34a"/>
            <stop offset="100%" stop-color="#4ade80"/>
        </linearGradient>
        <linearGradient id="grad-yellow" x1="0%" y1="0%" x2="100%" y2="0%">
            <stop offset="0%" stop-color="#ca8a04"/>
            <stop offset="100%" stop-color="#fde047"/>
        </linearGradient>
        <linearGradient id="grad-red" x1="0%" y1="0%" x2="100%" y2="0%">
            <stop offset="0%" stop-color="#dc2626"/>
            <stop offset="100%" stop-color="#f87171"/>
        </linearGradient>
        <linearGradient id="shimmer" x1="0%" y1="0%" x2="100%" y2="0%">
            <stop offset="0%" stop-color="rgba(255,255,255,0)"/>
            <stop offset="50%" stop-color="rgba(255,255,255,0.4)"/>
            <stop offset="100%" stop-color="rgba(255,255,255,0)"/>
        </linearGradient>
        <filter id="glow" x="-20%" y="-20%" width="140%" height="140%">
            <feGaussianBlur stdDeviation="1.5" result="blur" />
            <feComposite in="SourceGraphic" in2="blur" operator="over" />
        </filter>
    </defs>
    <style>
        .bg-rect { fill: #0f172a; }
        .title { font: bold 22px 'Segoe UI', Arial, sans-serif; fill: #f8fafc; }
        .row { font: bold 15px 'Segoe UI', Arial, sans-serif; fill: #38bdf8; filter: url(#glow); }
        .score { font: bold 14px 'Segoe UI', Arial, sans-serif; fill: #f1f5f9; }
        @keyframes shimmer-anim {
            0% { transform: translateX(-100%); }
            100% { transform: translateX(200%); }
        }
        .shimmer-rect {
            animation: shimmer-anim 2.5s infinite linear;
        }
    </style>
    <rect width="100%" height="100%" class="bg-rect"/>
    <text x="400" y="45" text-anchor="middle" class="title">Channel Performance Overview</text>
        <rect x="150" y="80" width="500" height="30" fill="#1e293b" rx="6"/>
        <clipPath id="clip-0">
            <rect x="150" y="80" width="498.84999999999997" height="30" rx="6"/>
        </clipPath>
        <rect x="150" y="80" width="498.84999999999997" height="30" fill="url(#grad-green)" rx="6"/>
        <g clip-path="url(#clip-0)">
            <rect x="150" y="80" width="100%" height="30" fill="url(#shimmer)" class="shimmer-rect"/>
        </g>
        <text x="135" y="100" text-anchor="end" class="row">DirectVPN</text>
        <text x="665" y="100" text-anchor="start" class="score">99.8% (S:100%)</text>
        <rect x="150" y="130" width="500" height="30" fill="#1e293b" rx="6"/>
        <clipPath id="clip-1">
            <rect x="150" y="130" width="498.6" height="30" rx="6"/>
        </clipPath>
        <rect x="150" y="130" width="498.6" height="30" fill="url(#grad-green)" rx="6"/>
        <g clip-path="url(#clip-1)">
            <rect x="150" y="130" width="100%" height="30" fill="url(#shimmer)" class="shimmer-rect"/>
        </g>
        <text x="135" y="150" text-anchor="end" class="row">PrivateVPNs</text>
        <text x="665" y="150" text-anchor="start" class="score">99.7% (S:100%)</text>
        <rect x="150" y="180" width="500" height="30" fill="#1e293b" rx="6"/>
        <clipPath id="clip-2">
            <rect x="150" y="180" width="496.25" height="30" rx="6"/>
        </clipPath>
        <rect x="150" y="180" width="496.25" height="30" fill="url(#grad-green)" rx="6"/>
        <g clip-path="url(#clip-2)">
            <rect x="150" y="180" width="100%" height="30" fill="url(#shimmer)" class="shimmer-rect"/>
        </g>
        <text x="135" y="200" text-anchor="end" class="row">sub.html</text>
        <text x="665" y="200" text-anchor="start" class="score">99.2% (S:100%)</text>
        <rect x="150" y="230" width="500" height="30" fill="#1e293b" rx="6"/>
        <clipPath id="clip-3">
            <rect x="150" y="230" width="488.45" height="30" rx="6"/>
        </clipPath>
        <rect x="150" y="230" width="488.45" height="30" fill="url(#grad-green)" rx="6"/>
        <g clip-path="url(#clip-3)">
            <rect x="150" y="230" width="100%" height="30" fill="url(#shimmer)" class="shimmer-rect"/>
        </g>
        <text x="135" y="250" text-anchor="end" class="row">xray_final.txt</text>
        <text x="665" y="250" text-anchor="start" class="score">97.7% (S:100%)</text>
        <rect x="150" y="280" width="500" height="30" fill="#1e293b" rx="6"/>
        <clipPath id="clip-4">
            <rect x="150" y="280" width="488.2" height="30" rx="6"/>
        </clipPath>
        <rect x="150" y="280" width="488.2" height="30" fill="url(#grad-green)" rx="6"/>
        <g clip-path="url(#clip-4)">
            <rect x="150" y="280" width="100%" height="30" fill="url(#shimmer)" class="shimmer-rect"/>
        </g>
        <text x="135" y="300" text-anchor="end" class="row">Sub.txt</text>
        <text x="665" y="300" text-anchor="start" class="score">97.6% (S:100%)</text>
        <rect x="150" y="330" width="500" height="30" fill="#1e293b" rx="6"/>
        <clipPath id="clip-5">
            <rect x="150" y="330" width="484.25" height="30" rx="6"/>
        </clipPath>
        <rect x="150" y="330" width="484.25" height="30" fill="url(#grad-green)" rx="6"/>
        <g clip-path="url(#clip-5)">
            <rect x="150" y="330" width="100%" height="30" fill="url(#shimmer)" class="shimmer-rect"/>
        </g>
        <text x="135" y="350" text-anchor="end" class="row">Fast.txt</text>
        <text x="665" y="350" text-anchor="start" class="score">96.8% (S:100%)</text>
        <rect x="150" y="380" width="500" height="30" fill="#1e293b" rx="6"/>
        <clipPath id="clip-6">
            <rect x="150" y="380" width="483.15" height="30" rx="6"/>
        </clipPath>
        <rect x="150" y="380" width="483.15" height="30" fill="url(#grad-green)" rx="6"/>
        <g clip-path="url(#clip-6)">
            <rect x="150" y="380" width="100%" height="30" fill="url(#shimmer)" class="shimmer-rect"/>
        </g>
        <text x="135" y="400" text-anchor="end" class="row">persianvpnhub</text>
        <text x="665" y="400" text-anchor="start" class="score">96.6% (S:100%)</text>
        <rect x="150" y="430" width="500" height="30" fill="#1e293b" rx="6"/>
        <clipPath id="clip-7">
            <rect x="150" y="430" width="479.35" height="30" rx="6"/>
        </clipPath>
        <rect x="150" y="430" width="479.35" height="30" fill="url(#grad-green)" rx="6"/>
        <g clip-path="url(#clip-7)">
            <rect x="150" y="430" width="100%" height="30" fill="url(#shimmer)" class="shimmer-rect"/>
        </g>
        <text x="135" y="450" text-anchor="end" class="row">v2rayfree</text>
        <text x="665" y="450" text-anchor="start" class="score">95.9% (S:100%)</text>
        <rect x="150" y="480" width="500" height="30" fill="#1e293b" rx="6"/>
        <clipPath id="clip-8">
            <rect x="150" y="480" width="471.1" height="30" rx="6"/>
        </clipPath>
        <rect x="150" y="480" width="471.1" height="30" fill="url(#grad-green)" rx="6"/>
        <g clip-path="url(#clip-8)">
            <rect x="150" y="480" width="100%" height="30" fill="url(#shimmer)" class="shimmer-rect"/>
        </g>
        <text x="135" y="500" text-anchor="end" class="row">Sub.mahsa.xsparvin</text>
        <text x="665" y="500" text-anchor="start" class="score">94.2% (S:100%)</text>
        <rect x="150" y="530" width="500" height="30" fill="#1e293b" rx="6"/>
        <clipPath id="clip-9">
            <rect x="150" y="530" width="465.5" height="30" rx="6"/>
        </clipPath>
        <rect x="150" y="530" width="465.5" height="30" fill="url(#grad-green)" rx="6"/>
        <g clip-path="url(#clip-9)">
            <rect x="150" y="530" width="100%" height="30" fill="url(#shimmer)" class="shimmer-rect"/>
        </g>
        <text x="135" y="550" text-anchor="end" class="row">proxies.txt</text>
        <text x="665" y="550" text-anchor="start" class="score">93.1% (S:100%)</text>
        <rect x="150" y="580" width="500" height="30" fill="#1e293b" rx="6"/>
        <clipPath id="clip-10">
            <rect x="150" y="580" width="452.2" height="30" rx="6"/>
        </clipPath>
        <rect x="150" y="580" width="452.2" height="30" fill="url(#grad-green)" rx="6"/>
        <g clip-path="url(#clip-10)">
            <rect x="150" y="580" width="100%" height="30" fill="url(#shimmer)" class="shimmer-rect"/>
        </g>
        <text x="135" y="600" text-anchor="end" class="row">prrofile_purple</text>
        <text x="665" y="600" text-anchor="start" class="score">90.4% (S:100%)</text>
        <rect x="150" y="630" width="500" height="30" fill="#1e293b" rx="6"/>
        <clipPath id="clip-11">
            <rect x="150" y="630" width="401.34999999999997" height="30" rx="6"/>
        </clipPath>
        <rect x="150" y="630" width="401.34999999999997" height="30" fill="url(#grad-green)" rx="6"/>
        <g clip-path="url(#clip-11)">
            <rect x="150" y="630" width="100%" height="30" fill="url(#shimmer)" class="shimmer-rect"/>
        </g>
        <text x="135" y="650" text-anchor="end" class="row">purkow.txt</text>
        <text x="665" y="650" text-anchor="start" class="score">80.3% (S:100%)</text></svg>